#!OML:ASF X:\für Bonn\!DataBase\2005_08_12_Daniel\c3d\Daniel.ASF
:FULLY-SPECIFIED
:DEGREES
248
root 2.70589 17.6606 17.4998 -4.3323 14.5047 0.502513
lowerback 3.37587 1.43744 0.678086
upperback 1.78981 1.94333 -5.33856
thorax 0.160463 1.01731 -5.97163
lowerneck 1.41796 -6.77616 -4.66204
upperneck 12.9004 -9.45193 4.14325
head 4.51534 -4.71279 1.8666
rclavicle 3.42407e-014 4.77083e-015
rhumerus 4.36791 -4.74664 -60.244
rradius 92.7536
rwrist -29.5222
rhand -5.29844 17.4873
rfingers 7.12502
rthumb 20.5066 -11.4497
lclavicle 3.42407e-014 4.77083e-015
lhumerus -37.2652 40.382 60.3576
lradius 15.7627
lwrist -44.9736
lhand -10.3619 -6.43592
lfingers 7.12502
lthumb 15.6351 22.9523
rfemur 10.5972 19.1331 22.4263
rtibia 12.9277
rfoot -28.2348 -30.2365
rtoes -10.5072
lfemur 0.0542932 -17.3775 -19.8692
ltibia 26.3442
lfoot -21.4048 7.84495
ltoes -13.0228
249
root 2.7097 17.6615 17.4981 -4.31227 14.2694 0.492911
lowerback 3.33758 1.37602 0.658886
upperback 1.78861 1.86073 -5.29135
thorax 0.169256 0.97507 -5.90726
lowerneck 1.51385 -6.81297 -4.73594
upperneck 13.3997 -9.55163 4.37903
head 4.20431 -4.73869 1.77306
rclavicle 2.10463e-014 1.27222e-014
rhumerus 3.09506 -4.38572 -60.6418
rradius 94.0331
rwrist -30.1599
rhand -4.99182 17.4673
rfingers 7.12502
rthumb 20.8013 -11.4377
lclavicle 2.10463e-014 1.27222e-014
lhumerus -37.3449 40.3947 60.3393
lradius 15.7513
lwrist -44.9534
lhand -10.4416 -6.45534
lfingers 7.12502
lthumb 15.5583 22.9388
rfemur 10.5139 19.2775 22.4063
rtibia 12.9628
rfoot -28.1661 -30.1706
rtoes -10.5579
lfemur 0.093405 -17.2672 -19.8769
ltibia 26.3095
lfoot -21.4302 7.96905
ltoes -13.0125
250
root 2.71343 17.662 17.4955 -4.32146 14.0518 0.490868
lowerback 3.34804 1.31971 0.63288
upperback 1.8039 1.78448 -5.24374
thorax 0.168421 0.936131 -5.84003
lowerneck 1.60038 -6.87265 -4.79824
upperneck 13.5502 -9.65067 4.4657
head 4.24791 -4.78698 1.80543
rclavicle 3.82164e-014 -3.02153e-014
rhumerus 1.83803 -4.07475 -61.099
rradius 95.2796
rwrist -30.6969
rhand -4.67528 17.3589
rfingers 7.12502
rthumb 21.1054 -11.5124
lclavicle 3.82164e-014 -3.02153e-014
lhumerus -37.3547 40.3372 60.4081
lradius 15.7399
lwrist -44.8832
lhand -10.5517 -6.46529
lfingers 7.12502
lthumb 15.4523 22.9371
rfemur 10.4594 19.3848 22.3818
rtibia 13.0037
rfoot -28.1003 -30.0784
rtoes -10.7071
lfemur 0.161274 -17.1981 -19.9009
ltibia 26.2719
lfoot -21.4615 8.08569
ltoes -12.9033
251
root 2.71789 17.6623 17.4921 -4.31966 13.8235 0.478878
lowerback 3.33335 1.24875 0.625418
upperback 1.81874 1.68967 -5.19809
thorax 0.180079 0.888202 -5.78429
lowerneck 1.73649 -6.89789 -4.87123
upperneck 13.6588 -9.70586 4.57304
head 4.26996 -4.81439 1.85038
rclavicle -3.35946e-014 -6.67916e-014
rhumerus 0.595057 -3.7123 -61.5478
rradius 96.4828
rwrist -31.2488
rhand -4.4442 17.2797
rfingers 7.12502
rthumb 21.3274 -11.5667
lclavicle -3.35946e-014 -6.67916e-014
lhumerus -37.3584 40.2117 60.5118
lradius 15.7678
lwrist -44.6735
lhand -10.6222 -6.44705
lfingers 7.12502
lthumb 15.3844 22.9606
rfemur 10.3902 19.4749 22.3524
rtibia 13.036
rfoot -27.9903 -29.9689
rtoes -10.7541
lfemur 0.219281 -17.165 -19.9329
ltibia 26.2377
lfoot -21.4882 8.27994
ltoes -12.8885
252
root 2.72185 17.6628 17.4877 -4.3117 13.6096 0.479725
lowerback 3.35472 1.18381 0.618902
upperback 1.82949 1.60205 -5.16392
thorax 0.168673 0.843605 -5.74248
lowerneck 1.80629 -6.94298 -4.98786
upperneck 13.8252 -9.79202 4.71679
head 4.32615 -4.85605 1.9082
rclavicle -5.72003e-014 3.65764e-014
rhumerus -0.665614 -3.32079 -62.0351
rradius 97.6574
rwrist -31.7233
rhand -4.38073 17.1056
rfingers 7.12502
rthumb 21.3883 -11.7339
lclavicle -5.72003e-014 3.65764e-014
lhumerus -37.421 40.3895 60.4389
lradius 15.728
lwrist -44.7972
lhand -10.7065 -6.51222
lfingers 7.12502
lthumb 15.3032 22.9016
rfemur 10.3083 19.5253 22.2969
rtibia 13.0674
rfoot -27.8816 -29.8311
rtoes -10.7627
lfemur 0.257339 -17.0829 -19.9504
ltibia 26.2068
lfoot -21.5148 8.38037
ltoes -12.7798
